<svg version="1.1" xmlns="http://www.w3.org/2000/svg" xmlns:xlink="http://www.w3.org/1999/xlink" width="48px" height="48px" viewBox="0,0,256,256">
                <g fill="none" fill-rule="nonzero" stroke="none" stroke-width="none" stroke-linecap="none" stroke-linejoin="none" stroke-miterlimit="10" stroke-dasharray="" stroke-dashoffset="0" font-family="none" font-weight="none" font-size="none" text-anchor="none">
                    <g transform="scale(5.33333,5.33333)">
                        <path d="M37.5,38.5h-27c-2.761,0 -5,-2.239 -5,-5v-19c0,-2.761 2.239,-5 5,-5h27c2.761,0 5,2.239 5,5v19c0,2.761 -2.239,5 -5,5z" fill="none" stroke="none" stroke-width="1" stroke-linecap="butt" stroke-linejoin="miter"/>
                        <path d="M42.5,23.511v9.989c0,2.761 -2.239,5 -5,5h-27c-2.761,0 -5,-2.239 -5,-5v-2.989" fill="none" stroke="#7808ff" stroke-width="3" stroke-linecap="round" stroke-linejoin="round"/>
                        <path d="M11.69,19.846l11.359,6.14c0.593,0.321 1.309,0.321 1.902,0l17.549,-9.486" fill="none" stroke="#7808ff" stroke-width="3" stroke-linecap="round" stroke-linejoin="round"/>
                        <path d="M5.5,24.894v-10.394c0,-2.761 2.239,-5 5,-5h27c2.761,0 5,2.239 5,5v2" fill="none" stroke="#7808ff" stroke-width="3" stroke-linecap="round" stroke-linejoin="round"/>
                    </g>
                </g>
            </svg>